<?xml version="1.0" encoding="utf-8"?>
<!-- Generator: Adobe Illustrator 23.0.0, SVG Export Plug-In . SVG Version: 6.00 Build 0)  -->
<svg version="1.1" id="Livello_1" xmlns="http://www.w3.org/2000/svg" xmlns:xlink="http://www.w3.org/1999/xlink" x="0px" y="0px"
	 viewBox="0 0 600 600" style="enable-background:new 0 0 600 600;" xml:space="preserve">
<style type="text/css">
	.st0{fill:#FFFFFF;}
	.st1{fill:none;}
</style>
<g>
	<path class="st0" d="M460.17,156.41v230.34c0,31.27-25.34,56.61-56.61,56.61h-98.24v-54.89h-49.79v54.89h-91.26
		c-31.27,0-56.61-25.34-56.61-56.61V156.41c0-31.27,25.34-56.61,56.61-56.61h239.28C434.82,99.8,460.17,125.14,460.17,156.41z"/>
</g>
<g>
	<path d="M210.55,210.06c-0.08,6.59-0.6,12.75-1.57,18.51c-0.97,5.75-3.33,11.45-7.07,17.08c-4.11,6.11-9.18,10.55-15.2,13.33
		c-6.02,2.78-12.58,4.17-19.68,4.17c-13.31,0-24.15-4.34-32.52-13.03c-8.37-8.69-12.56-20.09-12.56-34.21
		c0-14.6,4.24-26.3,12.73-35.11c8.48-8.81,19.53-13.21,33.14-13.21c8.67,0,16.28,2.08,22.82,6.25c6.54,4.17,11.64,10.45,15.31,18.86
		l-20.86,9.16c-1.5-4.2-3.81-7.62-6.95-10.23c-3.14-2.62-6.92-3.93-11.33-3.93c-6.8,0-12.06,2.7-15.76,8.09
		c-3.7,5.4-5.74,11.31-6.11,17.73c-0.07,0.4-0.11,0.81-0.11,1.25c0,0.44,0,0.85,0,1.25c0,0.08,0,0.18,0,0.3c0,0.12,0,0.26,0,0.42
		c0.15,6.82,2.13,13.09,5.94,18.8c3.81,5.71,9.27,8.57,16.37,8.57c4.78,0,8.82-1.31,12.11-3.93c3.29-2.62,5.16-6.5,5.61-11.66
		h-17.94v-18.45H210.55z"/>
	<path d="M242.17,244.57l-5.83,15.59h-23.33l32.52-89.73h24l31.85,89.73h-23.44l-5.49-15.59H242.17z M257.54,198.16h-0.22
		l-9.08,28.56h18.28L257.54,198.16z"/>
	<path d="M317.53,170.43h21.64l17.16,47.96l18.17-47.96h21.87l12.79,89.73h-21.98l-6.17-51.65h-0.22l-20.3,51.65h-8.75l-19.4-51.65
		h-0.22l-7.07,51.65h-21.87L317.53,170.43z"/>
	<path d="M440.44,190.18v15h24.78v19.76h-24.78v15.47h26.13v19.76h-48.11v-89.73h48.11v19.76H440.44z"/>
	<path d="M295.71,290.51v75.1c0,8.74-0.75,17.18-2.24,25.33c-1.5,8.15-5.88,15.47-13.15,21.96c-4.68,4.25-10.23,7.47-16.66,9.65
		c-6.43,2.18-13.03,3.63-19.78,4.34c-2.08,0.23-4.16,0.41-6.24,0.53c-2.08,0.12-4.09,0.18-6.04,0.18c-1.95,0-3.96-0.06-6.04-0.18
		c-2.08-0.12-4.16-0.3-6.24-0.53c-6.76-0.71-13.35-2.16-19.78-4.34c-6.43-2.18-11.98-5.4-16.66-9.65
		c-7.28-6.49-11.66-13.82-13.15-21.96c-1.49-8.15-2.24-16.53-2.24-25.15v-75.28h38.19v70.32c0,0.83,0,1.57,0,2.21
		c0,0.65,0,1.33,0,2.04c0.13,8.03,1.66,15.41,4.58,22.14c2.92,6.73,10.04,10.1,21.34,10.1c11.3,0,18.41-3.37,21.34-10.1
		c2.92-6.73,4.45-14.11,4.58-22.14c0-0.71,0-1.39,0-2.04c0-0.65,0-1.33,0-2.04v-70.5H295.71z"/>
	<g>
		<path d="M425.03,86.92H166.97c-45.35,0-82.13,36.78-82.13,82.13v252.62c0,42.79,34.82,77.58,77.58,77.58h43.71v38.16l90.95-52.54
			l-90.95-52.51v38.13h-43.71c-26.92,0-48.83-21.88-48.83-48.83V169.04c0-29.47,23.9-53.37,53.37-53.37h258.05
			c29.47,0,53.37,23.9,53.37,53.37v252.62c0,26.94-21.91,48.83-48.83,48.83h-67.95c-1.98-0.49-3.45-2.44-3.45-4.74v-43.74
			c0-1.41,0.11-18.98-0.12-35.43v-6.61h21.62c16.62,0,29.47-3.62,38.5-10.9c9-7.28,13.52-18.75,13.52-34.45
			c0-15.36-4.92-26.51-14.78-33.47c-9.89-6.99-22.75-10.52-38.59-10.64h-58.46v133.57h0.11v50.03c-0.06,0.29-0.09,0.6-0.09,0.92
			v9.12c0,8.34,6.76,15.1,15.1,15.1h94.58c42.76,0,77.58-34.79,77.58-77.58V169.04C507.15,123.7,470.37,86.92,425.03,86.92z
			 M264.31,482.54l4.03,2.33l-4.03,2.33V482.54z M358.05,318.49h6.44c7.39,0,13.83,0.75,19.29,2.24c5.43,1.5,8.17,6.47,8.17,14.95
			c0,8.14-2.85,12.88-8.57,14.26c-5.72,1.35-12.02,1.96-18.89,1.84h-6.44V318.49z"/>
	</g>
</g>
<rect x="312.64" y="264.76" class="st1" width="39.04" height="19.52"/>
<g>
	<polygon points="259.13,443.37 255.53,445.45 255.53,441.28 	"/>
	<path d="M255.53,441.28v4.17l3.61-2.09L255.53,441.28z"/>
</g>
</svg>
